<svg xmlns="http://www.w3.org/2000/svg" viewBox="0 0 137.25 191.00002">
  <defs>
    <style>
      .f718f548-63d5-4fa7-aad4-d1659ea57122 {
        fill: #f8db8f;
      }

      .b3ae5216-006c-4458-ad69-17f999b17471 {
        fill: #e04400;
      }

      .e49d79c1-b9af-4c52-bcac-1350c472557d {
        fill: #fff;
      }

      .ec038ff8-1b75-457d-9748-3e67e4456133 {
        fill: #4c4c4c;
      }
    </style>
  </defs>
  <g id="a7e26537-41cd-40b5-a747-ae711f79f708" data-name="Layer 2">
    <g id="f1deeec3-c5a0-4fe5-b316-13c5efd027d3" data-name="Layer 1">
      <g>
        <g>
          <g>
            <rect class="f718f548-63d5-4fa7-aad4-d1659ea57122" x="1.5" y="12.49986" width="127.5" height="171" rx="2.67871"/>
            <path class="b3ae5216-006c-4458-ad69-17f999b17471" d="M126.32144,14A1.17992,1.17992,0,0,1,127.5,15.17857V180.82143A1.17993,1.17993,0,0,1,126.32144,182H4.17856A1.17993,1.17993,0,0,1,3,180.82143V15.17857A1.17992,1.17992,0,0,1,4.17856,14H126.32144m0-3H4.17856A4.17859,4.17859,0,0,0,0,15.17857V180.82143A4.17859,4.17859,0,0,0,4.17856,185H126.32144A4.17859,4.17859,0,0,0,130.5,180.82143V15.17857A4.17859,4.17859,0,0,0,126.32144,11Z"/>
          </g>
          <rect class="e49d79c1-b9af-4c52-bcac-1350c472557d" x="14.80748" y="25.5" width="100.88504" height="145"/>
        </g>
        <g>
          <path class="e49d79c1-b9af-4c52-bcac-1350c472557d" d="M39.19629,27.49986c-2.05762,0-3.73193-2.16308-3.73193-4.82226V13.57213c0-2.65918,1.67236-4.82227,3.728-4.82227H49.9707a6.66715,6.66715,0,0,0,5.19043-2.70117,13.46249,13.46249,0,0,1,20.17774,0,6.6711,6.6711,0,0,0,5.19531,2.70117H91.30371c2.05762,0,3.73242,2.16309,3.73242,4.82227V22.6776c0,2.65918-1.6748,4.82226-3.73242,4.82226Z"/>
          <path class="ec038ff8-1b75-457d-9748-3e67e4456133" d="M65.25,3a11.41857,11.41857,0,0,1,8.91873,3.9873A8.24762,8.24762,0,0,0,80.534,10.25H91.30356c1.05578,0,2.23215,1.36436,2.23215,3.32217v9.10566C93.53571,24.63564,92.35934,26,91.30356,26H39.19644c-1.05578,0-2.23215-1.36436-2.23215-3.32217V13.57217c0-1.95781,1.17426-3.32217,2.22812-3.32217H49.97049a8.136,8.136,0,0,0,6.36084-3.26276A11.41846,11.41846,0,0,1,65.25,3m0-3A14.38772,14.38772,0,0,0,53.99112,5.11015,5.22414,5.22414,0,0,1,49.97049,7.25H39.19241c-2.88965,0-5.22812,2.83054-5.22812,6.32217v9.10566c0,3.49163,2.3425,6.32217,5.23215,6.32217H91.30356c2.88965,0,5.23215-2.83054,5.23215-6.32217V13.57217c0-3.49163-2.3425-6.32217-5.23215-6.32217H80.534a5.23243,5.23243,0,0,1-4.02506-2.13976A14.38763,14.38763,0,0,0,65.25,0Z"/>
        </g>
        <g>
          <path class="e49d79c1-b9af-4c52-bcac-1350c472557d" d="M62.33936,84.49986h68.82129A4.58936,4.58936,0,0,1,135.75,89.08922V184.911a4.58887,4.58887,0,0,1-4.58887,4.58887H62.33887A4.58887,4.58887,0,0,1,57.75,184.911V89.08922A4.58936,4.58936,0,0,1,62.33936,84.49986Z"/>
          <path class="ec038ff8-1b75-457d-9748-3e67e4456133" d="M131.16071,86A3.09278,3.09278,0,0,1,134.25,89.08928v95.82144A3.09281,3.09281,0,0,1,131.16071,188H62.33929a3.09281,3.09281,0,0,1-3.08929-3.0893V89.08928A3.09278,3.09278,0,0,1,62.33929,86h68.82142m0-3H62.33929A6.08927,6.08927,0,0,0,56.25,89.08928v95.82144A6.0893,6.0893,0,0,0,62.33929,191h68.82142a6.0893,6.0893,0,0,0,6.08929-6.0893V89.08928A6.08927,6.08927,0,0,0,131.16071,83Z"/>
        </g>
      </g>
    </g>
  </g>
</svg>
