<svg xmlns="http://www.w3.org/2000/svg" viewBox="0 0 137.25 191">
  <defs>
    <style>
      .e614e89f-02ae-46cd-a864-b10981b46b13 {
        fill: #f8db8f;
      }

      .fd226ab6-be6d-4b55-8d11-2e9c3f7db86d {
        fill: #fff;
      }

      .f2acdbd0-cffa-4419-a665-9940272ab387 {
        fill: #f8c02c;
      }

      .b5d04b5b-0967-4dfb-9b2c-d49fcd7d86ab {
        fill: #4c4c4c;
      }
    </style>
  </defs>
  <g id="b27b76db-99be-4cf0-ba9d-f5bcb230e1f3" data-name="Layer 2">
    <g id="ff5d4caf-db57-408f-a98e-44bb885ca8f8" data-name="Layer 1">
      <g>
        <g>
          <path class="e614e89f-02ae-46cd-a864-b10981b46b13" d="M57.25,183.99805c-32.19434-.05274-50.96582-.28418-52.91406-.49024a3.49028,3.49028,0,0,1-2.05225-.793A2.66271,2.66271,0,0,1,1.5,180.82129V15.17871A2.68174,2.68174,0,0,1,4.17871,12.5H126.23145a3.29,3.29,0,0,1,2.13671.94971,3.08868,3.08868,0,0,1,.63575,1.83593c.18945,2.65235.28808,30.188.248,68.71436H117.249l-.05859-60H13.30762V172H57.25Z"/>
          <path class="fd226ab6-be6d-4b55-8d11-2e9c3f7db86d" d="M126.12885,14a1.91357,1.91357,0,0,1,1.10778.435,1.79582,1.79582,0,0,1,.271.95685c.18152,2.54638.28082,29.96.24551,67.10815h-9.006l-.02588-27.00287-.02875-30L118.68964,22.5H11.8075v151H55.75v8.99515c-30.90112-.05609-49.41943-.285-51.25681-.47861a1.93285,1.93285,0,0,1-1.148-.36175A1.17358,1.17358,0,0,1,3,180.82141V15.17853A1.17989,1.17989,0,0,1,4.17859,14H126.12885m.19256-3H4.17859A4.17854,4.17854,0,0,0,0,15.17853V180.82141a4.16559,4.16559,0,0,0,1.22388,2.95471A4.88073,4.88073,0,0,0,4.17859,185c2.32428.24493,24.40973.45734,54.57141.5v-15H14.8075V25.5h100.885l.0575,60h15c.044-39.00241-.05371-67.56795-.25-70.32147a4.54534,4.54534,0,0,0-1.00085-2.71353A4.87814,4.87814,0,0,0,126.32141,11Z"/>
        </g>
        <polygon class="f2acdbd0-cffa-4419-a665-9940272ab387" points="56.25 170.5 14.807 170.5 14.807 25.5 115.693 25.5 115.693 83 119.954 83 119.954 19.375 10.546 19.375 10.546 176.625 56.25 176.625 56.25 170.5"/>
        <path class="fd226ab6-be6d-4b55-8d11-2e9c3f7db86d" d="M131.35715,86A2.89613,2.89613,0,0,1,134.25,88.89285v96.2143A2.89613,2.89613,0,0,1,131.35715,188H62.14285A2.89613,2.89613,0,0,1,59.25,185.10715V88.89285A2.89613,2.89613,0,0,1,62.14285,86h69.2143m0-3H62.14285A5.89288,5.89288,0,0,0,56.25,88.89285v96.2143A5.89288,5.89288,0,0,0,62.14285,191h69.2143a5.89288,5.89288,0,0,0,5.89285-5.89285V88.89285A5.89288,5.89288,0,0,0,131.35715,83Z"/>
        <g>
          <path class="b5d04b5b-0967-4dfb-9b2c-d49fcd7d86ab" d="M39.19629,27.5c-2.05762,0-3.73193-2.16309-3.73193-4.82227V13.57227c0-2.65918,1.67236-4.82227,3.728-4.82227H49.9707a6.66715,6.66715,0,0,0,5.19043-2.70117,13.46249,13.46249,0,0,1,20.17774,0A6.6711,6.6711,0,0,0,80.53418,8.75H91.30371c2.05762,0,3.73242,2.16309,3.73242,4.82227v9.10546c0,2.65918-1.6748,4.82227-3.73242,4.82227Z"/>
          <path class="fd226ab6-be6d-4b55-8d11-2e9c3f7db86d" d="M65.25,3a11.41848,11.41848,0,0,1,8.9187,3.98729A8.24773,8.24773,0,0,0,80.534,10.25l10.76956,0c1.05578,0,2.23215,1.36436,2.23215,3.32217v9.10566C93.53571,24.63564,92.35934,26,91.30356,26H39.19644c-1.05578,0-2.23215-1.36436-2.23215-3.32217V13.57217c0-1.95781,1.17426-3.32217,2.22812-3.32217H49.97049a8.136,8.136,0,0,0,6.36084-3.26276A11.41846,11.41846,0,0,1,65.25,3m0-3A14.38772,14.38772,0,0,0,53.99112,5.11015,5.22414,5.22414,0,0,1,49.97049,7.25H39.19241c-2.88965,0-5.22812,2.83054-5.22812,6.32217v9.10566c0,3.49163,2.3425,6.32217,5.23215,6.32217H91.30356c2.88965,0,5.23215-2.83054,5.23215-6.32217V13.57217c0-3.49163-2.3425-6.32217-5.23215-6.32217L80.534,7.25a5.23238,5.23238,0,0,1-4.02506-2.13975A14.38765,14.38765,0,0,0,65.25,0Z"/>
        </g>
      </g>
    </g>
  </g>
</svg>
